<svg width="24" height="24" viewBox="0 0 24 24" fill="none" xmlns="http://www.w3.org/2000/svg">
<path fill-rule="evenodd" clip-rule="evenodd" d="M9 3.35418C8.26706 2.52375 7.19469 2 6 2C5.44772 2 5 2.44772 5 3C5 3.55228 5.44772 4 6 4C7.10457 4 8 4.89543 8 6V18L7.99451 18.1493C7.91817 19.1841 7.05436 20 6 20L5.88338 20.0067C5.38604 20.0645 5 20.4872 5 21C5 21.5523 5.44772 22 6 22C7.19469 22 8.26706 21.4762 9 20.6458C9.73295 21.4762 10.8053 22 12 22C12.5523 22 13 21.5523 13 21C13 20.4477 12.5523 20 12 20L11.8507 19.9945C10.8159 19.9182 10 19.0544 10 18V6L10.0055 5.85074C10.0818 4.81588 10.9456 4 12 4C12.5523 4 13 3.55228 13 3C13 2.44772 12.5523 2 12 2C10.8053 2 9.73294 2.52375 9 3.35418ZM20 6C21.0544 6 21.9182 6.81588 21.9945 7.85074L22 8V16C22 17.0544 21.1841 17.9182 20.1493 17.9945L20 18H13C12.4477 18 12 17.5523 12 17C12 16.4872 12.386 16.0645 12.8834 16.0067L13 16H20V8H13C12.4477 8 12 7.55228 12 7C12 6.48716 12.386 6.06449 12.8834 6.00673L13 6H20ZM6 7C6 6.44772 5.55228 6 5 6H4L3.85074 6.00549C2.81588 6.08183 2 6.94564 2 8V16L2.00549 16.1493C2.08183 17.1841 2.94564 18 4 18H5L5.11662 17.9933C5.61396 17.9355 6 17.5128 6 17C6 16.4477 5.55228 16 5 16H4V8H5L5.11662 7.99327C5.61396 7.93551 6 7.51284 6 7ZM17.01 11C17.5623 11 18.01 11.4477 18.01 12C18.01 12.5128 17.624 12.9355 17.1266 12.9933L17 13C16.4477 13 16 12.5523 16 12C16 11.4872 16.386 11.0645 16.8834 11.0067L17.01 11ZM14.01 12C14.01 11.4477 13.5623 11 13.01 11L12.8834 11.0067C12.386 11.0645 12 11.4872 12 12C12 12.5523 12.4477 13 13 13L13.1266 12.9933C13.624 12.9355 14.01 12.5128 14.01 12Z" fill="#3F16D3"/>
</svg>
